<?xml version="1.0" encoding="UTF-8"?>
<svg xmlns="http://www.w3.org/2000/svg" viewBox="0 0 24 24" width="28" height="28" aria-hidden="true" role="img">
  <defs>
    <linearGradient id="annGradient" x1="0%" y1="0%" x2="100%" y2="0%">
      <stop offset="0%" stop-color="#ff2e92"/>
      <stop offset="100%" stop-color="#00d5ff"/>
    </linearGradient>
  </defs>
  <g fill="url(#annGradient)">
    <!-- Horn -->
    <path d="M3 9c0-1.105.895-2 2-2h1.5l8.2-3.28c1.322-.53 2.8.44 2.8 1.86v10.84c0 1.42-1.478 2.39-2.8 1.86L6.5 15H5c-1.105 0-2-.895-2-2V9z"/>
    <!-- Handle -->
    <path d="M6.5 12.5h2.25A1.25 1.25 0 0 1 10 13.75v3.5A1.75 1.75 0 0 1 8.25 19H7.75A1.75 1.75 0 0 1 6 17.25v-3a1.75 1.75 0 0 1 .5-1.75z"/>
    <!-- Sound waves -->
    <path d="M20.5 7.5a.75.75 0 0 1 1.06 0 5 5 0 0 1 0 7.07.75.75 0 1 1-1.06-1.06 3.5 3.5 0 0 0 0-4.95.75.75 0 0 1 0-1.06z"/>
    <path d="M18.5 6a.75.75 0 0 1 1.06 0 7 7 0 0 1 0 9.9.75.75 0 1 1-1.06-1.06 5.5 5.5 0 0 0 0-7.78A.75.75 0 0 1 18.5 6z"/>
  </g>
</svg>